<svg viewBox="0 0 18.17 26.65" xmlns="http://www.w3.org/2000/svg"><path d="m14.11 2h-10.04c-1.13 0-2.05.92-2.05 2.05v18.54c0 1.13.92 2.05 2.05 2.05h10.04c1.13 0 2.05-.92 2.05-2.05v-18.54c0-1.13-.92-2.05-2.05-2.05zm-1.38 5.51c-1.23 0-2.23-1-2.23-2.23s1-2.23 2.23-2.23 2.23 1 2.23 2.23-1 2.23-2.23 2.23z" fill="#fff"/><rect fill="#231f20" height="2.85" rx=".5" width="11.71" x="3.23" y="8.99"/><path d="m4.64 9.52c-.49 0-.89.4-.89.89s.4.89.89.89.89-.4.89-.89-.4-.89-.89-.89z" fill="#fff"/><rect fill="#26a9e0" height="1.67" rx=".57" width="2.64" x="6.35" y="9.58"/><path d="m8.52 11.31h-1.69c-.3 0-.54-.24-.54-.54v-.72c0-.3.24-.54.54-.54h1.69c.3 0 .54.24.54.54v.72c0 .3-.24.54-.54.54zm-1.69-1.67c-.23 0-.42.19-.42.42v.72c0 .23.19.42.42.42h1.69c.23 0 .42-.19.42-.42v-.72c0-.23-.19-.42-.42-.42z" fill="#fff"/></svg>