<?xml version="1.0" encoding="UTF-8"?>
<svg id="Layer_1" xmlns="http://www.w3.org/2000/svg" version="1.1" viewBox="0 0 18.2 26.6">
    <path fill="#fff" d="M14.1,2H4.1c-1.1,0-2,.9-2,2.1v18.5c0,1.1.9,2,2,2h10c1.1,0,2.1-.9,2.1-2V4c0-1.1-.9-2-2.1-2ZM12.7,7.5c-1.2,0-2.2-1-2.2-2.2s1-2.2,2.2-2.2,2.2,1,2.2,2.2-1,2.2-2.2,2.2Z"/>
    <rect fill="#a674b0" x="3.2" y="9" width="11.7" height="2.9" rx=".5" ry=".5"/>
    <path fill="#fff" d="M4.6,9.5c-.5,0-.9.4-.9.9s.4.9.9.9.9-.4.9-.9-.4-.9-.9-.9Z"/>
    <path fill="#fff" d="M13.8,11.3h-1.7c-.3,0-.5-.2-.5-.5v-.7c0-.3.2-.5.5-.5h1.7c.3,0,.5.2.5.5v.7c0,.3-.2.5-.5.5Z"/>
    <rect x="11.7" y="9.7" width="2.5" height="1.5" rx=".4" ry=".4"/>
</svg>