<svg viewBox="0 0 23.06 43.33" xmlns="http://www.w3.org/2000/svg"><path d="m12.95 2.82c-.63-1.09-2.2-1.09-2.83 0l-2.31 4h7.46l-2.31-4zm-1.42.76c-.3 0-.54-.24-.54-.54s.24-.54.54-.54.54.24.54.54-.24.54-.54.54z" fill="#333"/><path d="m10.11 40.51c.63 1.09 2.2 1.09 2.83 0l2.31-4h-7.46l2.31 4zm1.42-.76c.3 0 .54.24.54.54s-.24.54-.54.54-.54-.24-.54-.54.24-.54.54-.54z" fill="#333"/><path d="m17.47 4.99h-11.88c-1.97 0-3.59 1.61-3.59 3.59v26.17c0 1.97 1.61 3.59 3.59 3.59h11.89c1.97 0 3.59-1.61 3.59-3.59v-26.17c0-1.97-1.61-3.59-3.59-3.59zm-11.07 5.62c-.7 0-1.27-.57-1.27-1.27s.57-1.27 1.27-1.27 1.27.57 1.27 1.27-.57 1.27-1.27 1.27z"/><path d="m13.84 22.27c-.26 0-.48.16-.57.38h-1.17c-.03-.07-.07-.13-.12-.19l.69-1.43s.06 0 .09 0c.34 0 .61-.27.61-.61s-.27-.61-.61-.61c-.26 0-.48.16-.57.38h-1.33c-.09-.22-.31-.38-.57-.38-.34 0-.61.27-.61.61s.27.61.61.61h.05l.72 1.43s-.08.11-.11.18h-1.16c-.09-.22-.31-.38-.57-.38-.34 0-.61.27-.61.61s.27.61.61.61c.26 0 .48-.16.57-.38h1.17c.09.22.31.38.57.38s.48-.16.57-.38h1.17c.09.22.31.38.57.38.34 0 .61-.27.61-.61s-.27-.61-.61-.61zm-2.27 0h-.09l-.72-1.43s.08-.11.11-.18h1.33c.02.05.05.1.08.15l-.7 1.46z" fill="#565656"/></svg>