<svg viewBox="0 0 49.26 19.43" xmlns="http://www.w3.org/2000/svg"><path d="m44.39 2h-39.52c-1.58 0-2.87 1.29-2.87 2.87v9.69c0 1.58 1.29 2.87 2.87 2.87h39.52c1.58 0 2.87-1.29 2.87-2.87v-9.69c0-1.58-1.29-2.87-2.87-2.87z" fill="#ccc"/><path d="m26.94 10.33c-.26 0-.48.16-.57.38h-1.17c-.03-.07-.07-.13-.12-.19l.69-1.43s.06 0 .09 0c.34 0 .61-.27.61-.61s-.27-.61-.61-.61c-.26 0-.48.16-.57.38h-1.33c-.09-.22-.31-.38-.57-.38-.34 0-.61.27-.61.61s.27.61.61.61h.05l.72 1.43s-.08.11-.11.18h-1.16c-.09-.22-.31-.38-.57-.38-.34 0-.61.27-.61.61s.27.61.61.61c.26 0 .48-.16.57-.38h1.17c.09.22.31.38.57.38s.48-.16.57-.38h1.17c.09.22.31.38.57.38.34 0 .61-.27.61-.61s-.27-.61-.61-.61zm-2.27 0h-.09l-.72-1.43s.08-.11.11-.18h1.33c.02.05.05.1.08.15l-.7 1.46z" fill="#565656"/><path d="m42.9 4.52c-1.05 0-1.9.85-1.9 1.9s.85 1.9 1.9 1.9 1.9-.85 1.9-1.9-.85-1.9-1.9-1.9zm0 2.94c-.57 0-1.04-.47-1.04-1.04s.47-1.04 1.04-1.04 1.04.47 1.04 1.04-.47 1.04-1.04 1.04z" fill="#fff"/></svg>