<svg viewBox="0 0 25.87 26.19" xmlns="http://www.w3.org/2000/svg"><path d="m21.92 2h-17.96c-1.08 0-1.96.88-1.96 1.96v18.26c0 1.08.88 1.96 1.96 1.96h17.96c1.08 0 1.96-.88 1.96-1.96v-18.26c0-1.08-.88-1.96-1.96-1.96zm-18.79 18.18c-.14 0-.25-.11-.25-.25s.11-.25.25-.25.25.11.25.25-.11.25-.25.25zm0-6.88c-.14 0-.25-.11-.25-.25s.11-.25.25-.25.25.11.25.25-.11.25-.25.25zm.12-6.8c-.14 0-.25-.11-.25-.25s.11-.25.25-.25.25.11.25.25-.11.25-.25.25zm19.12-.24c0-.14.11-.25.25-.25s.25.11.25.25-.11.25-.25.25-.25-.11-.25-.25zm.37 13.82c-.14 0-.25-.11-.25-.25s.11-.25.25-.25.25.11.25.25-.11.25-.25.25zm0-6.79c-.14 0-.25-.11-.25-.25s.11-.25.25-.25.25.11.25.25-.11.25-.25.25z" fill="#333"/><path d="m23.16 4.52c.11 0 .21.01.31.03.29.06.56-.15.56-.45v-.06c0-1.12-.92-2.04-2.04-2.04h-18.1c-1.12 0-2.04.92-2.04 2.04v.09c0 .31.29.51.59.44.26-.06.55-.06.85.01.61.16 1.09.66 1.23 1.27.26 1.13-.6 2.14-1.68 2.14-.15 0-.29-.02-.43-.05-.29-.07-.56.17-.56.46v2.53c0 .31.29.51.59.44.26-.06.55-.06.85.01.61.16 1.09.66 1.23 1.27.26 1.13-.6 2.14-1.68 2.14-.15 0-.29-.02-.43-.05-.29-.07-.56.17-.56.46v2.62c0 .31.29.51.59.44.26-.06.55-.06.85.01.61.16 1.09.66 1.23 1.27.26 1.13-.6 2.14-1.69 2.14-.15 0-.29-.02-.43-.05-.29-.07-.56.17-.56.46v.07c0 1.12.92 2.04 2.04 2.04h18.1c1.12 0 2.04-.92 2.04-2.04v-.06c0-.3-.28-.51-.58-.45-.26.05-.54.03-.83-.06-.59-.19-1.05-.69-1.17-1.29-.22-1.11.62-2.09 1.7-2.09.11 0 .21.01.31.03.29.06.56-.15.56-.45v-2.58c0-.3-.27-.51-.56-.45-.1.02-.2.03-.31.03-1.07 0-1.92-.98-1.7-2.09.12-.6.58-1.1 1.17-1.29.29-.09.57-.1.83-.06.3.05.58-.15.58-.45v-2.48c0-.3-.28-.51-.58-.45-.26.05-.54.03-.83-.06-.59-.19-1.05-.69-1.17-1.29-.22-1.11.62-2.09 1.7-2.09z"/><path d="m7.03 3.89c-.69 0-1.25.56-1.25 1.25s.56 1.25 1.25 1.25 1.25-.56 1.25-1.25-.56-1.25-1.25-1.25zm0 1.93c-.38 0-.68-.31-.68-.68s.31-.68.68-.68.68.31.68.68-.31.68-.68.68z" fill="#fff"/><path d="m15.25 13.71c-.26 0-.48.16-.57.38h-1.17c-.03-.07-.07-.13-.12-.19l.69-1.43s.06 0 .09 0c.34 0 .61-.27.61-.61s-.27-.61-.61-.61c-.26 0-.48.16-.57.38h-1.33c-.09-.22-.31-.38-.57-.38-.34 0-.61.27-.61.61s.27.61.61.61h.05l.72 1.43s-.08.11-.11.18h-1.16c-.09-.22-.31-.38-.57-.38-.34 0-.61.27-.61.61s.27.61.61.61c.26 0 .48-.16.57-.38h1.17c.09.22.31.38.57.38s.48-.16.57-.38h1.17c.09.22.31.38.57.38.34 0 .61-.27.61-.61s-.27-.61-.61-.61zm-2.27 0h-.09l-.72-1.43s.08-.11.11-.18h1.33c.02.05.05.1.08.15l-.7 1.46z" fill="#565656"/></svg>