<svg viewBox="0 0 54 25.71" xmlns="http://www.w3.org/2000/svg"><rect fill="#666" height="21.71" rx="5" width="50" x="2" y="2"/><rect fill="#fff" height="14.07" rx="2" width="42.26" x="5.86" y="5.82"/><path d="m7.87 5.82h38.25c1.11 0 2 .9 2 2v5.35h-42.26v-5.35c0-1.11.9-2 2-2z"/><rect fill="#8b2581" height="3.5" rx="1" width="5.54" x="13.73" y="7.75"/><path d="m18.27 11.37h-3.54c-.62 0-1.12-.5-1.12-1.12v-1.5c0-.62.5-1.12 1.12-1.12h3.54c.62 0 1.12.5 1.12 1.12v1.5c0 .62-.5 1.12-1.12 1.12zm-3.54-3.5c-.48 0-.88.39-.88.88v1.5c0 .48.39.88.88.88h3.54c.48 0 .88-.39.88-.88v-1.5c0-.48-.39-.88-.88-.88z" fill="#fff"/><circle cx="9.74" cy="9.5" fill="#fade21" r="1.88"/></svg>