<svg viewBox="0 0 17.06 27.15" xmlns="http://www.w3.org/2000/svg"><path d="m9.45 2.37c-.51-.5-1.32-.5-1.83 0l-4.04 3.93h9.92l-4.04-3.93zm-.92 1.24c-.28 0-.51-.23-.51-.51s.23-.51.51-.51.51.23.51.51-.23.51-.51.51z" fill="#333"/><path d="m7.62 24.77c.51.5 1.32.5 1.83 0l4.04-3.93h-9.92s4.04 3.93 4.04 3.93zm.91-1.23c.28 0 .51.23.51.51s-.23.51-.51.51-.51-.23-.51-.51.23-.51.51-.51z" fill="#333"/><path d="m12.71 22.89h-8.36c-1.29 0-2.35-1.06-2.35-2.35v-12.74c0-1.54 1.9-3.55 6.53-3.55s6.53 2.21 6.53 3.55v12.74c0 1.29-1.06 2.35-2.35 2.35z"/><path d="m10.14 14c-.18 0-.34.11-.4.27h-.81s-.05-.09-.08-.13l.48-.99s.04 0 .06 0c.24 0 .43-.19.43-.43s-.19-.43-.43-.43c-.18 0-.34.11-.4.27h-.92c-.06-.16-.22-.27-.4-.27-.24 0-.43.19-.43.43s.19.43.43.43h.03l.5.99s-.06.08-.08.12h-.81c-.06-.16-.22-.27-.4-.27-.24 0-.43.19-.43.43s.19.43.43.43c.18 0 .34-.11.4-.27h.81c.06.16.22.27.4.27s.34-.11.4-.27h.81c.06.16.22.27.4.27.24 0 .43-.19.43-.43s-.19-.43-.43-.43zm-1.58 0h-.06l-.5-.99s.06-.08.08-.12h.92s.03.07.06.1l-.49 1.01z" fill="#333"/></svg>