<svg viewBox="0 0 36.81 30.92" xmlns="http://www.w3.org/2000/svg"><path d="m30.21 4.99h-1.76c-.09 0-.16-.07-.16-.16v-.24c0-.09-.07-.16-.16-.16h-1.17c-.09 0-.16.07-.16.16v.24c0 .09-.08.16-.17.16h-.75c-.09 0-.16-.07-.16-.16v-.24c0-.09-.07-.16-.16-.16h-1.22c-.09 0-.16.07-.16.16v.24c0 .09-.07.16-.16.16h-.78c-.09 0-.16-.07-.16-.16v-.24c0-.09-.07-.16-.16-.16h-1.22c-.09 0-.16.07-.16.16v.24c0 .09-.07.16-.16.16h-.73c-.09 0-.16-.07-.16-.16v-1.03c0-.44-.36-.79-.79-.79h-2.5c-.44 0-.79.36-.79.79v1.03c0 .09-.07.16-.16.16h-.84c-.09 0-.16-.07-.16-.16v-.24c0-.09-.07-.16-.16-.16h-1.17c-.09 0-.16.07-.16.16v.24c0 .09-.07.16-.16.16h-.79c-.09 0-.16-.07-.16-.16v-.24c0-.09-.07-.16-.16-.16h-1.14c-.09 0-.16.07-.16.16v.24c0 .09-.07.16-.16.16h-.79c-.09 0-.16-.07-.16-.16v-.24c0-.09-.07-.16-.16-.16h-1.16c-.09 0-.16.07-.16.16v.24c0 .09-.07.16-.16.16h-1.8c-1.98 0-3.59 1.61-3.59 3.59v14.61c0 1.98 1.61 3.59 3.59 3.59h1.76c.09 0 .16.07.16.16s.07.16.16.16h1.17c.09 0 .16-.07.16-.16 0-.09.07-.16.16-.16h.75c.09 0 .16.07.16.16s.07.16.16.16h1.22c.09 0 .16-.07.16-.16s.07-.16.16-.16h.78c.09 0 .16.07.16.16s.07.16.16.16h1.22c.09 0 .16-.07.16-.16s.07-.16.16-.16h.73c.09 0 .16.07.16.16v.39c0 .32.28.58.63.58h2.83c.35 0 .63-.26.63-.58v-.39c0-.09.07-.16.16-.16h.84c.09 0 .16.07.16.16s.07.16.16.16h1.17c.09 0 .16-.07.16-.16s.07-.16.16-.16h.79c.09 0 .16.07.16.16s.07.16.16.16h1.14c.09 0 .16-.07.16-.16s.07-.16.16-.16h.79c.09 0 .16.07.16.16s.07.16.16.16h1.16c.09 0 .16-.07.16-.16s.07-.16.16-.16h1.8c1.98 0 3.59-1.61 3.59-3.59v-14.61c0-1.98-1.61-3.59-3.59-3.59zm-13.06-1.47h2.51c.1 0 .19.09.19.19s-.09.19-.19.19h-2.51c-.1 0-.19-.09-.19-.19s.09-.19.19-.19zm2.51 24.07h-2.51c-.1 0-.19-.09-.19-.19s.09-.19.19-.19h2.51c.1 0 .19.09.19.19s-.09.19-.19.19z" fill="#b2b2b2"/><path d="m20.95 16.13c-.28 0-.53.18-.63.42h-1.29c-.03-.07-.07-.14-.13-.21l.76-1.57s.07 0 .1 0c.37 0 .68-.3.68-.68s-.3-.68-.68-.68c-.28 0-.53.18-.63.42h-1.46c-.1-.25-.34-.42-.63-.42-.37 0-.68.3-.68.68s.3.68.68.68h.05l.8 1.58c-.05.05-.09.12-.12.19h-1.28c-.1-.25-.34-.42-.63-.42-.37 0-.68.3-.68.68s.3.68.68.68c.28 0 .53-.18.63-.42h1.29c.1.25.34.42.63.42s.53-.18.63-.42h1.29c.1.25.34.42.63.42.37 0 .68-.3.68-.68s-.3-.68-.68-.68zm-2.5 0h-.1l-.8-1.58c.05-.05.09-.12.12-.19h1.46c.02.06.05.11.09.16z" fill="#565656"/></svg>